<svg version="1.1" id="Layer_1" xmlns="http://www.w3.org/2000/svg" xmlns:xlink="http://www.w3.org/1999/xlink" x="0px" y="0px"
	 width="100%" viewBox="0 0 696 150" enable-background="new 0 0 696 150" xml:space="preserve">
<path fill="#010101" opacity="1.000000" stroke="none" 
	d="
M144.000000,1.000000 
	C328.285187,1.000000 512.570374,1.000000 696.927734,1.000000 
	C696.927734,50.938694 696.927734,100.877518 696.927734,150.908173 
	C465.121857,150.908173 233.243668,150.908173 1.182742,150.908173 
	C1.182742,101.000496 1.182742,51.000336 1.182742,1.000000 
	C38.752144,1.000000 76.409088,1.000000 114.534470,1.468655 
	C115.002914,48.858768 115.002914,95.780228 115.002914,142.693512 
	C124.960938,142.693512 134.358032,142.693512 144.000000,142.693512 
	C144.000000,95.260437 144.000000,48.130219 144.000000,1.000000 
M361.186768,46.026344 
	C359.857483,45.048443 358.601166,43.947243 357.187958,43.111187 
	C336.543488,30.897877 315.390991,30.276350 294.954681,42.627895 
	C274.953156,54.716663 267.347992,73.617989 269.543335,96.624016 
	C272.175659,124.209167 295.920013,145.724533 323.615448,146.050339 
	C341.013092,146.255020 355.585052,140.107925 368.003662,128.480789 
	C370.136688,130.791031 372.150177,133.226746 374.421844,135.391495 
	C391.287476,151.463333 428.515564,151.570709 447.386444,139.396408 
	C470.575439,124.436333 471.100037,85.891792 449.237549,73.269768 
	C442.439056,69.344742 434.825012,66.691002 427.362274,64.093117 
	C417.711700,60.733604 407.521301,58.762005 398.156860,54.792610 
	C389.956024,51.316463 389.886292,41.913971 397.139648,36.784138 
	C410.061188,27.645552 428.286499,34.448822 431.774231,49.698341 
	C431.838043,49.977287 432.191803,50.189926 432.227295,50.229488 
	C441.897583,50.229488 451.332977,50.229488 460.738983,50.229488 
	C462.045624,32.701389 452.745667,17.283661 436.867523,10.683337 
	C421.504791,4.297270 405.768433,4.277026 390.100677,9.130361 
	C371.502686,14.891383 362.618256,26.869429 361.186768,46.026344 
M30.500000,6.001032 
	C21.408255,6.001032 12.316510,6.001032 3.306716,6.001032 
	C3.306716,51.998138 3.306716,97.376320 3.306716,142.696014 
	C3.922578,142.833588 4.234640,142.964005 4.546846,142.964355 
	C21.202896,142.982834 37.859543,143.071808 54.514687,142.952667 
	C59.980637,142.913559 65.541603,142.875504 70.889282,141.903030 
	C92.971054,137.887543 106.979362,118.731827 103.878601,96.610939 
	C102.282181,85.222054 96.121956,76.441399 85.874260,70.514626 
	C95.261078,63.475838 100.307083,54.345589 100.924156,43.167473 
	C101.898857,25.511312 89.245407,9.912368 70.308876,7.291000 
	C57.557411,5.525826 44.448826,6.340492 30.500000,6.001032 
M524.575134,148.496811 
	C562.580139,149.894226 591.467041,116.575577 580.727234,76.631409 
	C573.666504,50.370514 547.566956,32.570633 514.766052,37.805782 
	C486.817169,42.266518 465.169739,67.146049 468.845245,100.201797 
	C471.809967,126.865196 495.564636,148.470673 524.575134,148.496811 
M157.961502,65.620911 
	C150.589127,82.613441 150.594757,99.712128 159.090790,116.074028 
	C170.896286,138.809387 193.956146,149.475845 220.830734,144.923111 
	C242.857498,141.191620 258.228973,128.482666 264.678162,107.068504 
	C271.124664,85.663277 266.929993,65.553513 250.700607,49.718845 
	C224.775787,24.424515 175.617615,29.288841 157.961502,65.620911 
M618.320557,77.007355 
	C630.029663,59.216846 653.686829,59.565464 664.891785,77.631340 
	C665.635071,78.829773 667.109924,80.353203 668.279907,80.384064 
	C677.062866,80.615692 685.854797,80.510231 694.692627,80.510231 
	C690.664490,52.536232 664.679016,33.770523 634.402100,37.103619 
	C606.756836,40.147011 582.457458,62.228531 585.049438,97.351463 
	C587.229797,126.895973 611.265564,148.906952 641.810120,148.624817 
	C671.777527,148.348007 692.780701,125.896530 694.998169,103.488762 
	C687.011658,103.488762 679.062927,103.605957 671.120605,103.430344 
	C667.999146,103.361320 666.208496,104.067764 664.542358,107.146561 
	C658.415039,118.469414 645.498901,123.804626 634.128601,120.275055 
	C616.612488,114.837730 609.210205,95.336273 618.320557,77.007355 
z"/>
<path fill="#6CE5E8" opacity="1.000000" stroke="none" 
	d="
M143.531342,1.000000 
	C144.000000,48.130219 144.000000,95.260437 144.000000,142.693512 
	C134.358032,142.693512 124.960938,142.693512 115.002914,142.693512 
	C115.002914,95.780228 115.002914,48.858768 115.001457,1.468655 
	C124.354225,1.000000 133.708450,1.000000 143.531342,1.000000 
z"/>
<path fill="#6BE4E7" opacity="1.000000" stroke="none" 
	d="
M31.000000,6.001032 
	C44.448826,6.340492 57.557411,5.525826 70.308876,7.291000 
	C89.245407,9.912368 101.898857,25.511312 100.924156,43.167473 
	C100.307083,54.345589 95.261078,63.475838 85.874260,70.514626 
	C96.121956,76.441399 102.282181,85.222054 103.878601,96.610939 
	C106.979362,118.731827 92.971054,137.887543 70.889282,141.903030 
	C65.541603,142.875504 59.980637,142.913559 54.514687,142.952667 
	C37.859543,143.071808 21.202896,142.982834 4.546846,142.964355 
	C4.234640,142.964005 3.922578,142.833588 3.306716,142.696014 
	C3.306716,97.376320 3.306716,51.998138 3.306716,6.001032 
	C12.316510,6.001032 21.408255,6.001032 31.000000,6.001032 
M69.907150,89.594246 
	C67.299011,88.244682 64.739754,85.856430 62.074009,85.730988 
	C52.184132,85.265587 42.259174,85.545547 32.495361,85.545547 
	C32.495361,95.439713 32.495361,105.355721 32.495361,115.506187 
	C41.795567,115.506187 50.608829,115.739273 59.402557,115.425308 
	C65.393250,115.211411 70.382019,112.517540 72.904961,106.768478 
	C75.514572,100.821915 74.786713,95.149353 69.907150,89.594246 
M32.005138,36.726227 
	C32.005138,44.417812 32.005138,52.109398 32.005138,59.674770 
	C32.957520,59.857605 33.273762,59.970718 33.590248,59.971413 
	C41.417553,59.988552 49.244946,60.017395 57.072182,59.994770 
	C65.539391,59.970295 71.682236,54.366009 71.968094,46.464283 
	C72.247597,38.738274 66.821526,32.093063 58.870239,31.639406 
	C50.103771,31.139235 41.286739,31.525269 32.283150,31.525269 
	C32.172119,33.196522 32.086441,34.486164 32.005138,36.726227 
z"/>
<path fill="#FDFDFD" opacity="1.000000" stroke="none" 
	d="
M361.877289,46.079910 
	C362.618256,26.869429 371.502686,14.891383 390.100677,9.130361 
	C405.768433,4.277026 421.504791,4.297270 436.867523,10.683337 
	C452.745667,17.283661 462.045624,32.701389 460.738983,50.229488 
	C451.332977,50.229488 441.897583,50.229488 432.227295,50.229488 
	C432.191803,50.189926 431.838043,49.977287 431.774231,49.698341 
	C428.286499,34.448822 410.061188,27.645552 397.139648,36.784138 
	C389.886292,41.913971 389.956024,51.316463 398.156860,54.792610 
	C407.521301,58.762005 417.711700,60.733604 427.362274,64.093117 
	C434.825012,66.691002 442.439056,69.344742 449.237549,73.269768 
	C471.100037,85.891792 470.575439,124.436333 447.386444,139.396408 
	C428.515564,151.570709 391.287476,151.463333 374.421844,135.391495 
	C372.150177,133.226746 370.136688,130.791031 367.971832,127.827881 
	C371.401093,120.242210 374.981750,113.364532 378.222717,106.330360 
	C378.873535,104.917847 378.233002,102.910347 378.631592,101.118187 
	C382.709839,101.059196 386.344421,101.059196 389.930450,101.059196 
	C391.628052,109.859238 392.850708,112.200989 397.483276,115.675362 
	C405.616180,121.774940 419.603088,122.260216 427.942902,116.456573 
	C432.157013,113.523987 435.371704,109.609779 434.933136,104.063522 
	C434.509644,98.707878 431.070557,95.291710 426.311066,93.463394 
	C421.705688,91.694283 416.868622,90.538361 412.174896,88.987198 
	C401.091614,85.324486 390.033081,81.586876 378.956329,77.497452 
	C376.525574,66.472733 372.122498,56.903408 364.044861,49.272053 
	C363.131927,48.409546 362.590820,47.153477 361.877289,46.079910 
z"/>
<path fill="#FDFDFD" opacity="1.000000" stroke="none" 
	d="
M524.109497,148.497314 
	C495.564636,148.470673 471.809967,126.865196 468.845245,100.201797 
	C465.169739,67.146049 486.817169,42.266518 514.766052,37.805782 
	C547.566956,32.570633 573.666504,50.370514 580.727234,76.631409 
	C591.467041,116.575577 562.580139,149.894226 524.109497,148.497314 
M544.066284,70.384628 
	C543.258545,69.799675 542.475342,69.176796 541.639404,68.635475 
	C530.192566,61.223282 514.579346,62.768597 505.516937,72.199333 
	C496.409271,81.677147 495.275055,98.514679 502.973816,109.952362 
	C509.953644,120.321968 524.877686,124.359077 537.238403,119.016739 
	C558.010376,110.039055 557.504211,81.681946 544.066284,70.384628 
z"/>
<path fill="#6BE4E7" opacity="1.000000" stroke="none" 
	d="
M158.101501,65.268745 
	C175.617615,29.288841 224.775787,24.424515 250.700607,49.718845 
	C266.929993,65.553513 271.124664,85.663277 264.678162,107.068504 
	C258.228973,128.482666 242.857498,141.191620 220.830734,144.923111 
	C193.956146,149.475845 170.896286,138.809387 159.090790,116.074028 
	C150.594757,99.712128 150.589127,82.613441 158.101501,65.268745 
M205.271210,61.619015 
	C186.301971,65.238358 176.825882,84.225136 184.817734,102.600655 
	C192.662247,120.637360 218.800095,124.392769 231.228149,109.085533 
	C239.612274,98.759094 240.205368,87.162193 234.413879,75.574196 
	C228.669418,64.080276 218.406845,60.472847 205.271210,61.619015 
z"/>
<path fill="#FCFCFC" opacity="1.000000" stroke="none" 
	d="
M618.138794,77.339096 
	C609.210205,95.336273 616.612488,114.837730 634.128601,120.275055 
	C645.498901,123.804626 658.415039,118.469414 664.542358,107.146561 
	C666.208496,104.067764 667.999146,103.361320 671.120605,103.430344 
	C679.062927,103.605957 687.011658,103.488762 694.998169,103.488762 
	C692.780701,125.896530 671.777527,148.348007 641.810120,148.624817 
	C611.265564,148.906952 587.229797,126.895973 585.049438,97.351463 
	C582.457458,62.228531 606.756836,40.147011 634.402100,37.103619 
	C664.679016,33.770523 690.664490,52.536232 694.692627,80.510231 
	C685.854797,80.510231 677.062866,80.615692 668.279907,80.384064 
	C667.109924,80.353203 665.635071,78.829773 664.891785,77.631340 
	C653.686829,59.565464 630.029663,59.216846 618.138794,77.339096 
z"/>
<path fill="#6BE4E7" opacity="1.000000" stroke="none" 
	d="
M378.187897,101.177177 
	C378.233002,102.910347 378.873535,104.917847 378.222717,106.330360 
	C374.981750,113.364532 371.401093,120.242210 367.831299,127.500389 
	C355.585052,140.107925 341.013092,146.255020 323.615448,146.050339 
	C295.920013,145.724533 272.175659,124.209167 269.543335,96.624016 
	C267.347992,73.617989 274.953156,54.716663 294.954681,42.627895 
	C315.390991,30.276350 336.543488,30.897877 357.187958,43.111187 
	C358.601166,43.947243 359.857483,45.048443 361.532043,46.053123 
	C362.590820,47.153477 363.131927,48.409546 364.044861,49.272053 
	C372.122498,56.903408 376.525574,66.472733 378.495209,77.553093 
	C370.383270,77.993584 362.720490,77.859047 355.067078,78.067604 
	C352.066803,78.149361 350.431061,77.313652 348.854736,74.562424 
	C342.583130,63.616245 329.257904,58.618595 317.573151,62.415920 
	C305.889862,66.212761 297.994110,77.771362 298.477020,90.370651 
	C298.990631,103.770561 307.190063,114.669991 319.126343,117.819511 
	C330.908997,120.928490 342.243439,115.624916 349.352234,103.960655 
	C350.185394,102.593590 352.216187,101.174744 353.728577,101.133652 
	C361.875275,100.912247 370.033600,101.118492 378.187897,101.177177 
z"/>
<path fill="#020202" opacity="1.000000" stroke="none" 
	d="
M70.163322,89.863609 
	C74.786713,95.149353 75.514572,100.821915 72.904961,106.768478 
	C70.382019,112.517540 65.393250,115.211411 59.402557,115.425308 
	C50.608829,115.739273 41.795567,115.506187 32.495361,115.506187 
	C32.495361,105.355721 32.495361,95.439713 32.495361,85.545547 
	C42.259174,85.545547 52.184132,85.265587 62.074009,85.730988 
	C64.739754,85.856430 67.299011,88.244682 70.163322,89.863609 
z"/>
<path fill="#010202" opacity="1.000000" stroke="none" 
	d="
M32.002953,36.251015 
	C32.086441,34.486164 32.172119,33.196522 32.283150,31.525269 
	C41.286739,31.525269 50.103771,31.139235 58.870239,31.639406 
	C66.821526,32.093063 72.247597,38.738274 71.968094,46.464283 
	C71.682236,54.366009 65.539391,59.970295 57.072182,59.994770 
	C49.244946,60.017395 41.417553,59.988552 33.590248,59.971413 
	C33.273762,59.970718 32.957520,59.857605 32.005138,59.674770 
	C32.005138,52.109398 32.005138,44.417812 32.002953,36.251015 
z"/>
<path fill="#010202" opacity="1.000000" stroke="none" 
	d="
M378.631592,101.118187 
	C370.033600,101.118492 361.875275,100.912247 353.728577,101.133652 
	C352.216187,101.174744 350.185394,102.593590 349.352234,103.960655 
	C342.243439,115.624916 330.908997,120.928490 319.126343,117.819511 
	C307.190063,114.669991 298.990631,103.770561 298.477020,90.370651 
	C297.994110,77.771362 305.889862,66.212761 317.573151,62.415920 
	C329.257904,58.618595 342.583130,63.616245 348.854736,74.562424 
	C350.431061,77.313652 352.066803,78.149361 355.067078,78.067604 
	C362.720490,77.859047 370.383270,77.993584 378.503418,77.935204 
	C390.033081,81.586876 401.091614,85.324486 412.174896,88.987198 
	C416.868622,90.538361 421.705688,91.694283 426.311066,93.463394 
	C431.070557,95.291710 434.509644,98.707878 434.933136,104.063522 
	C435.371704,109.609779 432.157013,113.523987 427.942902,116.456573 
	C419.603088,122.260216 405.616180,121.774940 397.483276,115.675362 
	C392.850708,112.200989 391.628052,109.859238 389.930450,101.059196 
	C386.344421,101.059196 382.709839,101.059196 378.631592,101.118187 
z"/>
<path fill="#020202" opacity="1.000000" stroke="none" 
	d="
M544.327881,70.634399 
	C557.504211,81.681946 558.010376,110.039055 537.238403,119.016739 
	C524.877686,124.359077 509.953644,120.321968 502.973816,109.952362 
	C495.275055,98.514679 496.409271,81.677147 505.516937,72.199333 
	C514.579346,62.768597 530.192566,61.223282 541.639404,68.635475 
	C542.475342,69.176796 543.258545,69.799675 544.327881,70.634399 
z"/>
<path fill="#010202" opacity="1.000000" stroke="none" 
	d="
M205.699554,61.558907 
	C218.406845,60.472847 228.669418,64.080276 234.413879,75.574196 
	C240.205368,87.162193 239.612274,98.759094 231.228149,109.085533 
	C218.800095,124.392769 192.662247,120.637360 184.817734,102.600655 
	C176.825882,84.225136 186.301971,65.238358 205.699554,61.558907 
z"/>
</svg>